# Blender 4.2.0
# www.blender.org
o Plane
v 0.000000 0.000000 1.000000
v 0.000000 0.000000 -1.000000
v -0.012776 0.191017 0.002995
v 0.000000 0.076209 -0.500000
v 0.000000 0.104759 0.500000
v -0.500000 0.116762 0.000000
v 0.500000 0.041461 0.000000
v 0.500000 0.000000 0.500000
v -0.500000 0.000000 0.500000
v -0.500000 0.000000 -0.500000
v 0.500000 0.000000 -0.500000
v 0.000000 0.000000 -0.750000
v -0.010614 0.221327 0.243952
v -0.750000 0.000000 0.000000
v 0.257517 0.181965 -0.002369
v -0.015295 0.282130 -0.279021
v 0.000000 0.000000 0.750000
v -0.279828 0.274453 0.010587
v 0.750000 0.000000 0.000000
v 0.500000 0.061192 0.250000
v 0.250000 0.087808 0.500000
v 0.750000 0.000000 0.500000
v -0.500000 0.058709 0.250000
v -0.750000 0.000000 0.500000
v -0.250000 0.000000 0.500000
v -0.500000 0.017340 -0.250000
v -0.750000 0.000000 -0.500000
v -0.250054 0.007110 -0.500058
v 0.500000 0.013272 -0.250000
v 0.250000 0.025492 -0.500000
v 0.750000 0.000000 -0.500000
v 0.750000 0.000000 -0.250000
v 0.255136 0.199565 -0.253644
v 0.250000 0.000000 -0.750000
v -0.276787 0.227975 -0.276752
v -0.750000 0.000000 -0.250000
v -0.250000 0.000000 0.750000
v -0.750000 0.000000 0.250000
v 0.250000 0.000000 0.750000
v 0.258314 0.159184 0.246233
v 0.750000 0.000000 0.250000
v -0.268085 0.097606 0.278311
v -0.250000 0.000000 -0.750000
v -0.250000 0.000000 -0.855662
v 0.866025 0.000000 0.250000
v 0.866025 0.000000 0.000000
v 0.500000 0.000000 0.711325
v 0.433013 0.000000 0.750000
v 0.866025 0.000000 0.500000
v 0.750000 0.000000 0.566987
v -0.500000 0.000000 0.711325
v -0.750000 0.000000 0.566987
v 0.433013 0.000000 -0.750000
v 0.250000 0.000000 -0.855662
v 0.866025 0.000000 -0.250000
v 0.866025 0.000000 -0.500000
v 0.475481 0.002500 -0.725481
v 0.500000 0.000000 -0.711325
v -0.866025 0.000000 -0.250000
v -0.866025 0.000000 -0.500000
v -0.866025 0.000000 0.000000
v -0.750000 0.000000 -0.566987
v -0.500000 0.000000 -0.711325
v -0.433013 0.000000 0.750000
v -0.250000 0.000000 0.855662
v -0.866025 0.000000 0.500000
v -0.866025 0.000000 0.250000
v 0.250000 0.000000 0.855662
v -0.433013 0.000000 -0.750000
v 0.750000 0.000000 -0.566987
vn -0.0000 1.0000 -0.0000
vn -0.0515 0.9593 0.2777
vn 0.4418 0.8971 0.0048
vn 0.1738 0.9693 0.1738
vn -0.3292 0.9380 0.1089
vn -0.2009 0.9588 0.2009
vn -0.0346 0.9988 -0.0346
vn -0.1722 0.7022 -0.6908
vn 0.3733 0.8666 -0.3310
vn 0.0265 0.9993 -0.0265
vn 0.1086 0.9925 -0.0560
vn 0.2241 0.7585 -0.6119
vn 0.1568 0.9680 0.1959
vn 0.5570 0.8303 -0.0202
vn 0.0989 0.9751 -0.1983
vn 0.0511 0.9974 -0.0506
vn -0.3974 0.8105 -0.4303
vn -0.6296 0.7488 -0.2069
vn 0.0566 0.9953 0.0781
vn -0.2544 0.9485 -0.1886
vn -0.1158 0.9865 0.1158
vn 0.0316 0.9327 0.3592
vn 0.1308 0.9913 -0.0160
vn 0.1401 0.9292 0.3419
vn 0.3411 0.9077 0.2445
vn 0.2010 0.9788 -0.0386
vn 0.1206 0.9854 0.1206
vn -0.3955 0.8330 0.3869
vn -0.0948 0.9439 0.3164
vn -0.3536 0.8455 0.4003
vn -0.0145 0.9998 -0.0145
vn -0.1350 0.9774 -0.1629
vt 0.375000 0.875000
vt 0.500000 0.875000
vt 0.500000 1.000000
vt 0.375000 0.927831
vt 0.375000 0.375000
vt 0.500000 0.375000
vt 0.500000 0.500000
vt 0.375000 0.500000
vt 0.933013 0.500000
vt 0.875000 0.500000
vt 0.875000 0.375000
vt 0.933013 0.375000
vt 0.625000 0.375000
vt 0.750000 0.375000
vt 0.750000 0.500000
vt 0.625000 0.500000
vt 0.750000 0.144338
vt 0.750000 0.250000
vt 0.625000 0.250000
vt 0.625000 0.125000
vt 0.716506 0.125000
vt 0.933013 0.250000
vt 0.875000 0.250000
vt 0.875000 0.216506
vt 0.125000 0.375000
vt 0.250000 0.375000
vt 0.250000 0.500000
vt 0.125000 0.500000
vt 0.250000 0.144338
vt 0.250000 0.250000
vt 0.125000 0.250000
vt 0.125000 0.216506
vt 0.375000 0.125000
vt 0.500000 0.125000
vt 0.500000 0.250000
vt 0.375000 0.250000
vt 0.125000 0.625000
vt 0.250000 0.625000
vt 0.250000 0.750000
vt 0.125000 0.750000
vt 0.375000 0.625000
vt 0.500000 0.625000
vt 0.500000 0.750000
vt 0.375000 0.750000
vt 0.625000 0.927831
vt 0.625000 0.875000
vt 0.716506 0.875000
vt 0.625000 0.625000
vt 0.750000 0.625000
vt 0.750000 0.750000
vt 0.625000 0.750000
vt 0.933013 0.750000
vt 0.875000 0.750000
vt 0.875000 0.625000
vt 0.933013 0.625000
vt 0.750000 0.855662
vt 0.737690 0.862690
vt 0.716506 0.875000
vt 0.066987 0.750000
vt 0.066987 0.625000
vt 0.066987 0.500000
vt 0.125000 0.783494
vt 0.250000 0.855662
vt 0.283494 0.125000
vt 0.375000 0.072169
vt 0.500000 0.000000
vt 0.066987 0.250000
vt 0.066987 0.375000
vt 0.750000 0.144338
vt 0.625000 0.072169
vt 0.716506 0.125000
vt 0.283494 0.875000
vt 0.250000 0.855662
vt 0.283494 0.875000
vt 0.875000 0.783494
s 0
f 43/1/1 12/2/1 2/3/1 44/4/1
f 42/5/2 13/6/2 3/7/2 18/8/2
f 46/9/1 19/10/1 41/11/1 45/12/1
f 40/13/3 20/14/3 7/15/3 15/16/3
f 47/17/4 8/18/4 21/19/4 39/20/4 48/21/4
f 49/22/1 22/23/1 50/24/1
f 38/25/5 23/26/5 6/27/5 14/28/5
f 51/29/1 9/30/1 24/31/1 52/32/1
f 37/33/6 17/34/6 5/35/6 25/36/6
f 36/37/7 26/38/7 10/39/7 27/40/7
f 35/41/8 16/42/8 4/43/8 28/44/8
f 54/45/1 34/46/1 53/47/1
f 33/48/9 29/49/9 11/50/9 30/51/9
f 56/52/1 31/53/1 32/54/1 55/55/1
f 29/49/10 32/54/10 31/53/10 11/50/10
f 7/15/11 19/10/11 32/54/11 29/49/11
f 55/55/1 32/54/1 19/10/1 46/9/1
f 16/42/12 33/48/12 30/51/12 4/43/12
f 3/7/13 15/16/13 33/48/13 16/42/13
f 15/16/14 7/15/14 29/49/14 33/48/14
f 2/3/1 12/2/1 34/46/1 54/45/1
f 4/43/15 30/51/15 34/46/15 12/2/15
f 34/46/16 30/51/16 11/50/16 58/56/16 57/57/16 53/58/16
f 26/38/17 35/41/17 28/44/17 10/39/17
f 6/27/18 18/8/18 35/41/18 26/38/18
f 18/8/19 3/7/19 16/42/19 35/41/19
f 36/37/1 27/40/1 60/59/1 59/60/1
f 14/28/1 36/37/1 59/60/1 61/61/1
f 14/28/20 6/27/20 26/38/20 36/37/20
f 27/40/1 62/62/1 60/59/1
f 62/62/1 27/40/1 10/39/1 63/63/1
f 64/64/1 37/33/1 25/36/1 9/30/1 51/29/1
f 65/65/1 37/33/1 64/64/1
f 1/66/1 17/34/1 37/33/1 65/65/1
f 52/32/1 24/31/1 66/67/1
f 38/25/1 14/28/1 61/61/1 67/68/1
f 24/31/1 38/25/1 67/68/1 66/67/1
f 24/31/21 9/30/21 23/26/21 38/25/21
f 50/24/1 22/23/1 8/18/1 47/69/1
f 17/34/22 39/20/22 21/19/22 5/35/22
f 17/34/1 1/66/1 68/70/1 39/20/1
f 48/71/1 39/20/1 68/70/1
f 13/6/23 40/13/23 15/16/23 3/7/23
f 5/35/24 21/19/24 40/13/24 13/6/24
f 21/19/25 8/18/25 20/14/25 40/13/25
f 20/14/26 41/11/26 19/10/26 7/15/26
f 8/18/27 22/23/27 41/11/27 20/14/27
f 45/12/1 41/11/1 22/23/1 49/22/1
f 23/26/28 42/5/28 18/8/28 6/27/28
f 9/30/29 25/36/29 42/5/29 23/26/29
f 25/36/30 5/35/30 13/6/30 42/5/30
f 43/1/1 44/4/1 69/72/1
f 63/73/31 10/39/31 28/44/31 43/1/31 69/74/31
f 28/44/32 4/43/32 12/2/32 43/1/32
f 58/56/1 11/50/1 31/53/1 70/75/1
f 70/75/1 31/53/1 56/52/1
